<svg width="126" height="126" viewBox="0 0 126 126" fill="none" xmlns="http://www.w3.org/2000/svg">
<mask id="mask0_659_3" style="mask-type:alpha" maskUnits="userSpaceOnUse" x="0" y="0" width="126" height="126">
<circle cx="63" cy="63" r="63" fill="#D9D9D9"/>
</mask>
<g mask="url(#mask0_659_3)">
<path fill-rule="evenodd" clip-rule="evenodd" d="M51.733 -16.4007C46.8109 -15.6414 40.0035 -13.9379 35.8592 -12.428L32.5491 -11.2219L31.2031 -12.0546C29.6933 -12.9879 28.5697 -13.096 27.1412 -12.4448C25.8706 -11.8656 24.3023 -9.54483 24.3023 -8.24447C24.3023 -7.43693 23.7842 -6.90849 21.8942 -5.78791C11.0388 0.648093 -0.466612 12.5093 -6.78782 23.7813C-14.3357 37.24 -18.0281 53.8962 -16.7517 68.7261C-15.0711 88.2483 -7.77365 104.7 5.16987 118.147C18.1921 131.676 33.9219 139.742 52.4101 142.372C60.2708 143.489 71.326 143.09 79.7918 141.381C99.859 137.33 119.047 124.054 130.511 106.288C136.524 96.9711 140.58 86.1052 142.462 74.2787C143.272 69.1934 143.143 55.0708 142.242 50.1824C138.945 32.277 131.812 18.4399 119.623 6.30673C106.835 -6.42237 91.9388 -13.8143 73.7194 -16.4707C68.6768 -17.2062 56.7057 -17.168 51.733 -16.4007ZM70.7879 -14.3741C81.5034 -13.1459 88.7761 -11.0313 97.7998 -6.51876C105.497 -2.66965 110.466 0.884029 117.01 7.22072C132.559 22.2765 140.726 41.4722 140.726 62.9639C140.726 84.5818 132.547 103.69 116.776 118.921C110.578 124.906 105.525 128.468 97.7998 132.298C87.9176 137.198 82.3716 138.818 70.3691 140.315C64.2518 141.078 60.0539 140.974 52.3611 139.869C22.5103 135.581 -2.06471 114.729 -11.0524 86.062C-12.2723 82.1714 -12.707 80.3677 -13.6899 75.1168C-14.6075 70.2167 -14.6037 55.7757 -13.6832 50.8111C-11.4368 38.6917 -7.97551 29.8368 -1.7255 20.2193C3.99517 11.4168 13.8103 1.956 23.0191 -3.63182C25.2102 -4.96068 25.3388 -4.9875 26.4343 -4.34004C29.2582 -2.6709 32.8531 -4.29897 33.3611 -7.47716C33.5047 -8.37815 33.6626 -9.11529 33.7116 -9.11529C33.7602 -9.11529 35.419 -9.67642 37.3974 -10.3624C48.9325 -14.362 59.6531 -15.6498 70.7879 -14.3741ZM62.8309 -7.43903C61.5192 -6.12652 61.8425 -4.82197 63.7191 -3.85057C65.331 -3.01663 65.2515 -2.31428 63.5638 -2.48358C62.4364 -2.59631 62.2027 -2.47562 62.2027 -1.78165C62.2027 -1.11282 62.526 -0.916695 63.8025 -0.81151C65.7528 -0.651008 66.6 -1.2817 66.6 -2.89468C66.6 -3.8447 66.2758 -4.3061 65.1346 -4.97995C63.5617 -5.9086 63.5629 -6.82342 65.1363 -6.42824C65.7984 -6.26187 66.1762 -6.40268 66.3613 -6.88461C66.9275 -8.36181 64.1836 -8.79261 62.8309 -7.43903ZM52.2229 -4.4008C51.3125 -0.506012 51.3276 0.104149 52.3318 0.104149C52.8515 0.104149 53.1882 -0.23278 53.2741 -0.838749C53.455 -2.11313 55.0766 -2.34026 55.6981 -1.17861C56.0955 -0.434771 57.8054 0.0882245 57.8054 -0.533668C57.8054 -0.65394 57.0495 -2.25687 56.1256 -4.09573C53.9098 -8.50555 53.1954 -8.56129 52.2229 -4.4008ZM71.6255 -6.82887C71.6255 -6.42992 72.0116 -6.00247 72.4831 -5.87885C73.2805 -5.67015 73.3203 -5.44889 73.0531 -2.73334C72.7855 -0.0161246 72.8207 0.177484 73.5565 0.0396119C74.1784 -0.0768882 74.4305 -0.66819 74.7354 -2.72622C75.1056 -5.22762 75.1751 -5.3437 76.3058 -5.3437C77.0375 -5.3437 77.4885 -5.56623 77.4885 -5.92746C77.4885 -6.66711 76.7292 -6.95417 73.8932 -7.28775C71.9194 -7.51991 71.6255 -7.4604 71.6255 -6.82887ZM82.511 -5.2469C82.5094 -5.18488 82.0382 -3.74874 81.4641 -2.05571C80.2048 1.65762 80.206 1.62661 81.2752 1.90655C81.9595 2.08549 82.1785 1.88643 82.3745 0.907496C82.7276 -0.860541 83.6933 -0.634664 83.8499 1.25323C83.9408 2.34908 84.2004 2.86285 84.7126 2.96008C85.3215 3.07574 85.4455 2.78365 85.4455 1.23395C85.4455 0.0869644 85.6876 -0.832464 86.0737 -1.15305C87.0101 -1.93083 86.8443 -3.55932 85.7596 -4.23653C84.8994 -4.77377 82.5182 -5.51426 82.511 -5.2469ZM84.819 -2.82638C84.9626 -2.59421 84.7771 -2.28788 84.4069 -2.14581C83.6053 -1.83822 83.1585 -2.17724 83.5438 -2.80123C83.8914 -3.36446 84.4798 -3.37577 84.819 -2.82638ZM34.3532 -2.08128C33.5156 -1.65467 32.9394 -1.07133 33.0089 -0.720154C33.3376 0.944374 35.3834 5.13293 35.8675 5.13293C36.1707 5.13293 37.0741 4.82031 37.8752 4.4377C40.4566 3.20607 40.8645 0.295661 38.7526 -1.81769C37.5502 -3.02082 36.3399 -3.09332 34.3532 -2.08128ZM37.3718 -0.629217C38.5641 0.308651 38.6726 1.64882 37.6399 2.68224L36.6959 3.62681L35.7863 1.55118C35.143 0.0836133 35.0145 -0.61455 35.3478 -0.832464C36.0338 -1.28045 36.6184 -1.22178 37.3718 -0.629217ZM91.5159 0.277641C89.4433 2.3516 89.8013 5.12245 92.2973 6.32308C94.5357 7.40007 97.1716 5.20082 97.1716 2.25605C97.1716 -0.510202 93.5642 -1.77201 91.5159 0.277641ZM95.4106 2.2133C95.4939 2.92655 95.1731 3.61424 94.4331 4.30863L93.3313 5.34247L92.5503 4.37903C91.3416 2.88842 92.366 0.81195 94.2041 1.02567C95.0094 1.11954 95.3189 1.42378 95.4106 2.2133ZM26.1822 2.20702C26.0373 2.44169 26.3346 3.30748 26.8431 4.13095L27.7677 5.62785L26.0515 4.75158C22.4847 2.93074 21.9118 3.94279 24.327 7.79735C25.286 9.3282 26.3217 10.5808 26.6278 10.5808C27.6492 10.5808 27.715 9.75019 26.7957 8.45863C25.6101 6.79201 25.9891 6.48903 27.8335 7.62972C28.7867 8.21935 29.6267 8.4469 30.1892 8.26838C31.2408 7.93438 31.1122 7.49856 28.9889 4.19381C27.4905 1.86129 26.7287 1.32237 26.1822 2.20702ZM57.3866 4.7059C35.0279 6.78447 15.5688 22.0573 7.98707 43.4774C4.88761 52.235 3.8666 62.5595 5.21133 71.5447C5.98609 76.7202 8.39287 84.366 10.705 88.9967C18.7742 105.158 34.0416 116.826 51.8393 120.433C57.6814 121.617 67.8476 121.696 73.51 120.601C87.9482 117.809 100.333 110.303 109.225 98.9558C111.223 96.407 111.525 96.1845 112.989 96.1845C117.766 96.1845 120.59 91.064 117.956 87.1796C117.36 86.3017 117.088 85.4812 117.275 85.1304C117.961 83.8477 119.38 79.3255 120.155 75.955C122.674 64.9943 121.953 53.6666 118.05 42.8488C111.183 23.8186 94.1161 9.33616 73.9288 5.40826C69.7522 4.59569 62.0762 4.26966 57.3866 4.7059ZM101.019 7.19976C99.2023 9.69194 98.9896 10.1776 99.521 10.6189C100.032 11.043 100.362 10.8821 101.403 9.70451L102.666 8.27592L102.425 10.419C102.24 12.0563 102.336 12.6887 102.829 13.0977C103.183 13.3927 103.546 13.5595 103.634 13.4694C104.371 12.71 107.641 7.97797 107.641 7.67079C107.641 6.59589 106.567 6.8138 105.489 8.10704L104.301 9.53312L104.389 7.43779C104.477 5.38353 104.162 4.2948 103.48 4.2948C103.292 4.2948 102.184 5.60187 101.019 7.19976ZM71.4286 7.42647C76.9332 8.31992 82.5889 10.0289 83.4579 11.0619C83.893 11.579 84.5062 11.8526 84.9626 11.7332C85.6746 11.5471 90.1787 13.684 93.9373 15.9918C95.215 16.7762 95.4248 17.0767 95.0295 17.5536C94.372 18.3465 94.8926 18.7995 95.6954 18.1328C96.2281 17.6902 96.6435 17.8578 98.2181 19.149C99.3313 20.0617 100.103 21.0444 100.103 21.5494C100.103 22.0757 100.311 22.3247 100.644 22.1964C101.354 21.924 101.963 22.4152 104.883 25.6122C106.258 27.1171 107.133 28.3969 106.891 28.5465C106.057 29.062 106.832 31.0295 107.998 31.3585C108.608 31.5307 109.244 31.6417 109.413 31.6057C109.881 31.5047 113.351 37.639 114.821 41.1688C117.198 46.8735 118.769 53.4486 119.026 58.7733L119.158 61.4972L114.896 61.6162L110.633 61.7352L109.084 60.0598C106.122 56.8565 102.713 56.8489 99.9829 60.0401L98.557 61.7068H94.1651H89.7737L88.439 60.0447C85.8228 56.7873 81.7325 56.7848 79.157 60.0389L77.8369 61.7068H73.5619H69.2869L67.4409 59.8243C64.4549 56.7798 61.4204 56.8544 58.4704 60.0452L56.9339 61.7068H52.6237H48.3135L46.9956 60.0657C44.4251 56.8653 41.11 56.7748 38.119 59.8243L36.2729 61.7068H32.057H27.841L26.0884 59.8432C23.1975 56.7689 19.7906 56.851 17.0446 60.0607L15.6367 61.7068H11.3215H7.00668L7.26884 58.0093C7.90708 49.0103 11.1058 39.9191 16.4734 31.8483C17.6611 30.0619 18.8722 28.6006 19.1646 28.6006C19.4565 28.6006 19.6956 28.3039 19.6956 27.941C19.6956 27.1213 24.2223 22.3146 24.9941 22.3146C25.3044 22.3146 25.5586 22.0544 25.5586 21.7363C25.5586 20.0538 36.4547 13.0051 42.7633 10.6063C44.7748 9.84155 45.0026 9.82814 45.4566 10.4492C46.0295 11.2337 47.089 10.7953 46.7506 9.91404C46.519 9.30933 48.3931 8.56592 48.8915 9.06461C49.0351 9.20793 49.4577 9.04868 49.8312 8.71049C51.6362 7.07614 64.542 6.30841 71.4286 7.42647ZM53.2314 8.46534C52.6317 8.83621 52.8884 10.1617 53.5597 10.1617C54.0954 10.1617 54.4388 9.13668 54.0912 8.57429C53.9203 8.29771 53.5735 8.25371 53.2314 8.46534ZM65.3436 8.48545C65.3436 8.71594 65.5208 8.90452 65.7377 8.90452C65.9546 8.90452 66.2482 8.71594 66.3906 8.48545C66.533 8.25497 66.3554 8.06639 65.9965 8.06639C65.6376 8.06639 65.3436 8.25497 65.3436 8.48545ZM60.5104 9.35166C60.3583 9.59724 60.3349 9.89896 60.4576 10.0222C60.7579 10.3222 61.5745 9.79336 61.5745 9.29886C61.5745 8.76329 60.8517 8.79892 60.5104 9.35166ZM78.1514 9.68649C77.9709 9.97858 77.9366 10.3306 78.0748 10.4689C78.4496 10.844 78.8584 10.2925 78.6557 9.68482C78.5141 9.25905 78.4153 9.25905 78.1514 9.68649ZM15.2376 10.3784C15.1036 10.7283 15.6082 12.503 16.3587 14.323C17.3579 16.744 17.8881 17.5687 18.3358 17.3969C18.7696 17.2301 18.8827 16.7612 18.724 15.7831C18.4384 14.023 19.237 13.2209 20.4934 14.0058C21.2187 14.4588 21.4654 14.4374 22.0312 13.8713C22.6506 13.2515 22.4516 13.057 19.5783 11.4696C16.143 9.57209 15.5994 9.43547 15.2376 10.3784ZM72.2536 10.9998C72.1112 11.2303 72.1833 11.4189 72.4136 11.4189C72.6439 11.4189 72.9488 11.2303 73.0912 10.9998C73.2336 10.7694 73.1616 10.5808 72.9312 10.5808C72.7009 10.5808 72.396 10.7694 72.2536 10.9998ZM53.9081 12.1058C53.5735 12.4406 53.9517 13.0952 54.4798 13.0952C54.6967 13.0952 54.8739 12.8123 54.8739 12.4666C54.8739 11.8187 54.3797 11.6339 53.9081 12.1058ZM64.8201 12.1569C64.0634 12.3237 63.7413 14.3524 64.4717 14.3524C64.6832 14.3524 65.1543 14.4668 65.5187 14.6067C65.9442 14.7702 66.1812 14.6327 66.1812 14.2225C66.1812 13.8713 66.3424 13.5214 66.5393 13.4443C67.1808 13.1941 65.574 11.9905 64.8201 12.1569ZM69.6312 12.3249C69.0227 12.9338 69.449 13.9388 70.1945 13.6525C70.8448 13.4028 70.9943 12.4343 70.4361 12.089C70.2426 11.9691 69.8804 12.0756 69.6312 12.3249ZM47.984 13.3738C47.8051 14.0863 47.8667 14.5992 48.1418 14.691C48.3894 14.7735 48.592 15.1461 48.592 15.5186C48.592 16.0458 48.7039 16.0844 49.0946 15.6934C49.371 15.4168 49.9431 15.1905 50.3656 15.1905C50.962 15.1905 51.0499 15.0262 50.7572 14.4571C50.5499 14.0536 50.4649 13.4883 50.5679 13.1999C50.6713 12.912 50.4728 12.6761 50.1269 12.6761C49.781 12.6761 49.2232 12.5705 48.8873 12.4414C48.4739 12.2826 48.1821 12.5839 47.984 13.3738ZM79.4518 12.5278C78.8445 13.1354 79.1946 14.1764 80.0272 14.2392C80.6834 14.2887 80.8593 14.0913 80.7601 13.4183C80.6236 12.4934 79.9464 12.0324 79.4518 12.5278ZM110.479 13.3294C108.244 14.543 107.77 17.3114 109.516 18.9533C110.979 20.3278 112.889 20.1904 114.482 18.5958C116.144 16.933 116.189 15.0271 114.598 13.6576C113.294 12.5353 112.114 12.4414 110.479 13.3294ZM56.2148 13.5972C55.6721 14.1403 56.0306 15.1905 56.7584 15.1905C57.5311 15.1905 57.7928 14.225 57.1764 13.6488C56.812 13.3081 56.5193 13.2925 56.2148 13.5972ZM75.3946 13.5142C75.3946 13.7447 75.6772 13.9333 76.0227 13.9333C76.3682 13.9333 76.6509 13.7447 76.6509 13.5142C76.6509 13.2838 76.3682 13.0952 76.0227 13.0952C75.6772 13.0952 75.3946 13.2838 75.3946 13.5142ZM38.3346 14.1998C37.8078 14.727 37.7655 14.9697 38.1579 15.2127C38.8414 15.6351 39.7975 15.2441 39.7975 14.5418C39.7975 13.6265 39.0759 13.4581 38.3346 14.1998ZM44.8229 14.1181C44.8229 14.7945 45.4159 15.2953 45.7828 14.9286C46.1095 14.6017 45.6593 13.5142 45.1969 13.5142C44.9913 13.5142 44.8229 13.7858 44.8229 14.1181ZM113.852 15.5392C114.042 16.8772 112.766 18.1944 111.432 18.0389C110.027 17.875 109.796 16.3865 110.992 15.1905C112.141 14.0402 113.666 14.2262 113.852 15.5392ZM59.5534 15.0715C58.8804 15.1997 58.656 15.4579 58.8277 15.9054C58.9642 16.262 58.8616 16.8127 58.599 17.1295C58.2204 17.5859 58.3004 17.7049 58.986 17.7049C59.4609 17.7049 59.9664 17.8935 60.1087 18.124C60.4949 18.7492 61.1557 18.6298 61.1557 17.9354C61.1557 17.601 61.4853 17.1421 61.8886 16.9158C62.5867 16.5235 62.5867 16.4904 61.8886 16.2214C61.4853 16.0659 61.1557 15.6762 61.1557 15.3552C61.1557 15.0342 61.0142 14.797 60.8416 14.8284C60.6691 14.8599 60.0891 14.9692 59.5534 15.0715ZM72.0442 16.4477C72.0442 16.6782 72.244 16.8668 72.4877 16.8668C72.7315 16.8668 72.8148 16.6782 72.6724 16.4477C72.53 16.2172 72.3307 16.0286 72.2289 16.0286C72.1272 16.0286 72.0442 16.2172 72.0442 16.4477ZM83.7703 16.4477C83.7703 16.6782 83.3733 16.8668 82.888 16.8668C82.2556 16.8668 82.0776 17.0545 82.2598 17.5297C82.3996 17.8943 82.5144 18.507 82.5152 18.8917C82.5161 19.4046 82.906 19.5991 83.981 19.6221C85.1134 19.6464 85.4455 19.4859 85.4455 18.9135C85.4455 18.5066 85.634 18.0569 85.8643 17.9144C86.5725 17.4765 86.3287 16.8668 85.4455 16.8668C84.9848 16.8668 84.6079 16.6782 84.6079 16.4477C84.6079 16.2172 84.4195 16.0286 84.1891 16.0286C83.9588 16.0286 83.7703 16.2172 83.7703 16.4477ZM89.0973 17.2703C88.808 18.3766 89.7695 19.1796 90.4299 18.3829C90.8094 17.9253 90.7683 17.6433 90.2461 17.1207C89.3968 16.2708 89.357 16.2759 89.0973 17.2703ZM33.114 17.8331C32.7145 18.4735 32.7605 18.7207 33.3628 19.1611C34.2493 19.8099 35.752 19.0995 35.4052 18.1952C35.2871 17.888 35.1908 17.5037 35.1908 17.3411C35.1908 16.7079 33.578 17.0897 33.114 17.8331ZM65.7624 17.4954C65.7624 17.8411 66.0451 18.124 66.3906 18.124C66.7361 18.124 67.0188 17.8411 67.0188 17.4954C67.0188 17.1496 66.7361 16.8668 66.3906 16.8668C66.0451 16.8668 65.7624 17.1496 65.7624 17.4954ZM75.1374 17.1873C74.5553 17.572 74.9837 18.7094 75.7748 18.8795C76.5843 19.0534 77.1221 18.0632 76.5755 17.4048C76.0676 16.7922 75.7983 16.7515 75.1374 17.1873ZM41.0601 17.6089C41.0568 17.9023 40.6212 18.3394 40.0923 18.5803C39.3175 18.9336 39.1341 19.3434 39.15 20.687C39.1651 22.007 39.3096 22.3184 39.8427 22.1801C40.2129 22.0837 40.8256 22.1784 41.2038 22.39C41.7507 22.6964 41.8914 22.5845 41.8914 21.8444C41.8914 21.3327 42.1879 20.586 42.5502 20.1853C43.1545 19.5173 43.1365 19.434 42.3349 19.1796C41.8537 19.0266 41.5451 18.7647 41.6481 18.5975C41.7515 18.4303 41.6632 18.0196 41.4513 17.6848C41.1786 17.2536 41.0647 17.2313 41.0601 17.6089ZM43.4284 17.8796C43.1838 18.5183 43.8794 18.9491 44.6948 18.6637C45.3309 18.4412 44.9117 17.2858 44.1948 17.2858C43.8987 17.2858 43.5536 17.5532 43.4284 17.8796ZM49.0108 17.6559C48.6653 17.7979 48.3336 18.1554 48.2742 18.45C48.131 19.1561 49.366 19.6125 49.92 19.0581C50.5214 18.4563 49.7936 17.3336 49.0108 17.6559ZM52.8846 18.0058C52.174 18.261 52.2217 19.2378 52.9588 19.5211C53.8122 19.8488 54.6251 18.7806 53.9366 18.2358C53.646 18.0058 53.1728 17.9023 52.8846 18.0058ZM70.8109 18.3054C70.5345 18.6394 70.0646 18.8188 69.7673 18.7048C69.3824 18.5569 69.227 18.9709 69.227 20.1422C69.227 21.5423 69.3435 21.7568 70.0098 21.5825C70.4403 21.4698 71.0739 21.6114 71.4182 21.8972C71.9333 22.3251 72.0442 22.2865 72.0442 21.6789C72.0442 21.2724 72.3491 20.7171 72.7214 20.4447C73.3308 19.9989 73.2939 19.8363 72.3567 18.8238C71.468 17.865 71.2402 17.7883 70.8109 18.3054ZM63.2497 19.4059C63.2497 19.6498 63.4381 19.7332 63.6685 19.5907C63.8988 19.4482 64.0872 19.2487 64.0872 19.1469C64.0872 19.0451 63.8988 18.9621 63.6685 18.9621C63.4381 18.9621 63.2497 19.162 63.2497 19.4059ZM78.6088 19.5505C78.3227 20.2964 78.9719 21.2255 79.5355 20.8768C79.7918 20.7184 80.0012 20.3375 80.0012 20.0299C80.0012 19.2722 78.8655 18.8812 78.6088 19.5505ZM35.4952 20.192C35.2553 21.1111 36.1201 21.6361 36.7822 20.9736C37.3228 20.4326 36.966 19.3811 36.2419 19.3811C35.948 19.3811 35.6121 19.7462 35.4952 20.192ZM29.5003 20.5638C29.1912 21.0935 29.3189 21.4886 30.0183 22.1663C30.7453 22.8707 30.9953 22.939 31.1708 22.4806C31.2944 22.1587 31.6579 21.8955 31.9787 21.8955C32.3652 21.8955 32.4984 21.5632 32.3736 20.9107C32.1433 19.7051 30.1419 19.4637 29.5003 20.5638ZM66.8094 21.4765C66.9518 21.707 67.1511 21.8955 67.2529 21.8955C67.3546 21.8955 67.4376 21.707 67.4376 21.4765C67.4376 21.246 67.2378 21.0574 66.9941 21.0574C66.7503 21.0574 66.667 21.246 66.8094 21.4765ZM117.7 22.745C114.799 24.4736 114.575 24.7238 115.133 25.6064C115.43 26.0745 115.687 26.0476 116.593 25.4534C117.826 24.645 118.044 25.0025 117.013 26.1424C115.892 27.3819 116.574 28.2653 118.42 27.9653L119.996 27.7092L119.008 28.5729C118.091 29.3754 118 30.6959 118.862 30.6959C119.335 30.6959 124.142 26.9658 124.328 26.455C124.513 25.9458 123.557 24.7787 123.157 25.0255C122.99 25.1286 122.073 25.3889 121.118 25.6034L119.382 25.994L120.693 24.1669C121.785 22.6452 121.915 22.2329 121.472 21.6986C120.788 20.8747 120.883 20.8483 117.7 22.745ZM46.0793 22.5241C46.0793 22.9084 46.282 23.1548 46.5295 23.0723C46.777 22.9897 46.9797 22.7433 46.9797 22.5241C46.9797 22.305 46.777 22.0586 46.5295 21.976C46.282 21.8935 46.0793 22.1399 46.0793 22.5241ZM57.3866 22.3146C57.3866 22.5451 57.5638 22.7337 57.7807 22.7337C57.9976 22.7337 58.2912 22.5451 58.4336 22.3146C58.576 22.0841 58.3984 21.8955 58.0395 21.8955C57.6806 21.8955 57.3866 22.0841 57.3866 22.3146ZM62.4121 22.3146C62.4121 22.5451 62.7061 22.7337 63.065 22.7337C63.4239 22.7337 63.6014 22.5451 63.4591 22.3146C63.3167 22.0841 63.0231 21.8955 62.8062 21.8955C62.5892 21.8955 62.4121 22.0841 62.4121 22.3146ZM80.683 22.8653C80.4066 23.9234 81.096 24.8646 81.9164 24.5499C82.8134 24.2054 82.661 22.4508 81.7124 22.2027C81.1508 22.0556 80.843 22.2543 80.683 22.8653ZM3.59606 23.2462C2.72414 24.4912 2.7744 25.3838 3.76693 26.2823C4.56472 27.0048 5.11208 27.0044 7.44599 26.2806C8.69985 25.8917 8.74549 27.1225 7.50169 27.7884C6.69008 28.2234 6.67165 28.3198 7.28392 28.9321C7.89577 29.5447 8.04109 29.5175 9.00765 28.6085C10.4332 27.2688 10.4144 25.4974 8.9641 24.5465C7.92844 23.8677 7.79359 23.8672 6.62391 24.539C5.11836 25.4035 4.28246 25.0578 5.26117 23.9758C6.00326 23.1548 5.78424 22.3146 4.82772 22.3146C4.5086 22.3146 3.95454 22.7337 3.59606 23.2462ZM27.0298 22.7249C26.8845 22.96 26.4469 23.1532 26.0574 23.154C25.5373 23.1548 25.3413 23.5337 25.3195 24.5788C25.2981 25.6009 25.4472 25.9416 25.8484 25.7878C26.1554 25.6701 26.6873 25.8063 27.0298 26.0908C27.5265 26.5032 27.6526 26.4981 27.6526 26.0657C27.6526 25.7677 27.9202 25.2259 28.2473 24.8621C28.764 24.2871 28.7406 24.0755 28.068 23.2487C27.6157 22.6918 27.1848 22.4743 27.0298 22.7249ZM51.5236 22.8984C51.5236 23.7231 52.6292 24.0487 53.1786 23.3862C53.5245 22.9696 53.4714 22.7672 52.9659 22.5732C51.9231 22.1725 51.5236 22.2626 51.5236 22.8984ZM78.0137 22.7949C77.4533 23.3556 77.7938 24.4099 78.5355 24.4099C79.3086 24.4099 79.6281 23.2931 79.0033 22.7743C78.6322 22.4663 78.3361 22.4722 78.0137 22.7949ZM89.4646 22.6683C89.3197 22.903 89.4051 23.221 89.6543 23.3753C90.2984 23.7734 90.7139 23.2282 90.1761 22.6901C89.8754 22.3892 89.6413 22.3821 89.4646 22.6683ZM95.4964 23.5718C95.4964 24.412 96.293 24.5495 96.8299 23.8015C97.2122 23.2688 96.8462 22.7337 96.0999 22.7337C95.7678 22.7337 95.4964 23.1108 95.4964 23.5718ZM32.678 23.8061C32.678 24.1652 32.8694 24.3408 33.1035 24.1962C33.3376 24.0512 33.421 23.7575 33.2882 23.5429C32.9293 22.9616 32.678 23.0698 32.678 23.8061ZM36.3328 23.9636C36.0912 24.8885 37.0875 25.484 37.5737 24.7058C38.1608 23.7654 38.0515 23.1527 37.2965 23.1527C36.8831 23.1527 36.4497 23.5177 36.3328 23.9636ZM60.6176 24.117C60.4672 24.5084 60.0748 24.829 59.7448 24.829C59.339 24.829 59.1455 25.3025 59.1455 26.2957C59.1455 27.2302 59.3457 27.7625 59.6975 27.7625C60.0011 27.7625 60.5476 27.8769 60.912 28.0168C61.3815 28.197 61.5745 28.0244 61.5745 27.423C61.5745 26.9566 61.8103 26.4927 62.098 26.3917C62.4896 26.2547 62.4506 26.0083 61.943 25.414C61.5703 24.9769 61.1808 24.3462 61.0778 24.0122C60.9271 23.5228 60.8374 23.5429 60.6176 24.117ZM40.2539 25.8314C39.9466 26.2019 39.341 26.5053 38.9088 26.5053C38.0444 26.5053 37.9401 26.8254 38.5105 27.7277C38.7178 28.0554 38.7308 28.7301 38.539 29.2342C38.2329 30.0401 38.3116 30.1243 39.2066 29.9533C39.7648 29.8465 40.5027 29.9931 40.847 30.2789C41.3742 30.7169 41.4726 30.6297 41.4726 29.7233C41.4726 29.1081 41.8466 28.386 42.3466 28.0357C43.1985 27.4385 43.1997 27.4163 42.4065 27.1644C41.9588 27.0224 41.4169 26.5124 41.2025 26.0317C40.8495 25.2397 40.7603 25.2208 40.2539 25.8314ZM42.5908 25.8419C42.3487 26.4734 43.3836 27.0869 44.0231 26.6913C44.2329 26.5618 44.4042 26.1843 44.4042 25.8519C44.4042 25.0716 42.8894 25.0637 42.5908 25.8419ZM64.9248 25.914C64.9248 26.2014 64.8285 26.6884 64.7104 26.9956C64.3745 27.8723 65.86 28.6148 66.708 27.9942C67.7056 27.2646 67.1176 25.4685 65.8671 25.4245C65.3486 25.4061 64.9248 25.6265 64.9248 25.914ZM31.8405 26.0862C31.8405 26.3167 32.0289 26.5053 32.2593 26.5053C32.4896 26.5053 32.678 26.3167 32.678 26.0862C32.678 25.8557 32.4896 25.6671 32.2593 25.6671C32.0289 25.6671 31.8405 25.8557 31.8405 26.0862ZM47.8592 26.3636C47.1585 26.6465 47.1924 27.6179 47.9128 27.8945C48.6578 28.1807 49.4288 27.4092 49.1428 26.6637C48.9107 26.0594 48.7223 26.0154 47.8592 26.3636ZM70.8415 26.6477C70.5253 27.0303 69.8657 27.3434 69.3757 27.3434C68.6043 27.3434 68.4845 27.5865 68.4845 29.1512C68.4845 30.7718 68.5771 30.9411 69.3799 30.7873C69.8724 30.6934 70.6731 30.8292 71.1598 31.0898C71.9245 31.4997 72.0442 31.4486 72.0442 30.7144C72.0442 30.2471 72.4212 29.6294 72.8818 29.3415C73.9238 28.6903 73.9589 28.1815 72.9626 28.1815C72.5217 28.1815 72.0413 27.7168 71.811 27.0668C71.4517 26.0531 71.3641 26.0154 70.8415 26.6477ZM76.6509 26.7148C76.6509 27.0605 76.9336 27.3434 77.2791 27.3434C77.6246 27.3434 77.9073 27.0605 77.9073 26.7148C77.9073 26.3691 77.6246 26.0862 77.2791 26.0862C76.9336 26.0862 76.6509 26.3691 76.6509 26.7148ZM86.474 26.535C86.317 26.7894 86.3731 27.1821 86.5988 27.4079C86.8669 27.6761 87.0951 27.5957 87.2563 27.1753C87.5491 26.4114 86.8857 25.8683 86.474 26.535ZM22.6271 27.1586C22.6271 27.5177 22.8156 27.6954 23.0459 27.5529C23.2762 27.4104 23.4647 27.1167 23.4647 26.8996C23.4647 26.6825 23.2762 26.5053 23.0459 26.5053C22.8156 26.5053 22.6271 26.7994 22.6271 27.1586ZM91.7273 26.9243C91.7273 27.1548 91.9158 27.3434 92.1461 27.3434C92.3765 27.3434 92.5649 27.1548 92.5649 26.9243C92.5649 26.6938 92.3765 26.5053 92.1461 26.5053C91.9158 26.5053 91.7273 26.6938 91.7273 26.9243ZM55.5599 27.5529C55.3961 27.9804 55.5825 28.1815 56.1432 28.1815C56.5972 28.1815 56.9678 27.8987 56.9678 27.5529C56.9678 27.2072 56.7052 26.9243 56.3845 26.9243C56.0637 26.9243 55.6926 27.2072 55.5599 27.5529ZM82.2916 27.3643C81.8937 28.0089 82.4386 28.4246 82.9763 27.8865C83.277 27.5856 83.2841 27.3514 82.9981 27.1745C82.7636 27.0295 82.4457 27.115 82.2916 27.3643ZM34.1308 27.7834C33.733 28.4279 34.2778 28.8436 34.8155 28.3056C35.1162 28.0047 35.1234 27.7704 34.8373 27.5936C34.6028 27.4486 34.2849 27.5341 34.1308 27.7834ZM99.9343 27.6971C99.7894 27.9318 99.8749 28.2498 100.124 28.404C100.768 28.8022 101.184 28.257 100.646 27.7189C100.345 27.418 100.111 27.4109 99.9343 27.6971ZM25.9628 28.1442C25.0996 28.4912 25.1009 29.7497 25.9644 29.976C26.8946 30.219 27.7288 28.9752 27.0571 28.3471C26.7928 28.0998 26.3003 28.0089 25.9628 28.1442ZM93.6299 28.1526C93.3439 28.6157 94.0043 29.116 94.3913 28.7288C94.7891 28.3303 94.715 27.7625 94.2648 27.7625C94.0478 27.7625 93.7622 27.938 93.6299 28.1526ZM50.2672 28.759C50.2672 29.0762 50.5277 29.5527 50.8464 29.8171C51.2949 30.1897 51.4842 30.1461 51.684 29.6248C52.1132 28.5059 51.983 28.1815 51.1048 28.1815C50.6441 28.1815 50.2672 28.4413 50.2672 28.759ZM55.1465 29.3453C54.9618 29.6395 54.52 29.828 54.1645 29.7643C53.7143 29.6835 53.4709 30.0615 53.3621 31.0102C53.2511 31.9762 53.3771 32.3722 53.7955 32.3722C54.1201 32.3722 54.4597 32.596 54.551 32.87C54.6569 33.1877 55.0577 33.0263 55.6608 32.4229C56.3032 31.78 56.4766 31.3195 56.2035 30.9821C55.9824 30.7093 55.7299 30.1092 55.6419 29.6483C55.5264 29.0402 55.3902 28.9572 55.1465 29.3453ZM79.1637 29.8578C79.1637 30.0883 79.3521 30.2768 79.5825 30.2768C79.8128 30.2768 80.0012 30.0883 80.0012 29.8578C80.0012 29.6273 79.8128 29.4387 79.5825 29.4387C79.3521 29.4387 79.1637 29.6273 79.1637 29.8578ZM36.0912 30.2559C36.2713 30.7961 36.8454 30.8933 36.8973 30.3921C36.9145 30.2249 36.7026 30.0128 36.4262 29.9206C36.1498 29.8285 35.999 29.9793 36.0912 30.2559ZM-0.983398 31.1695C-2.06555 32.715 -1.86411 35.159 -0.55456 36.3734C0.915391 37.7366 3.29202 37.7764 4.49813 36.4581C5.69126 35.1535 6.11047 33.6168 5.39685 33.1642C4.53457 32.6177 4.20163 32.7166 4.18697 33.5246C4.13337 36.4752 0.0124798 36.3919 0.0124798 33.44C0.0124798 32.6605 0.248259 31.9355 0.535967 31.8287C0.92586 31.6841 0.885658 31.4515 0.377666 30.9168C-0.264337 30.2417 -0.344326 30.2563 -0.983398 31.1695ZM21.9847 30.7194C21.8452 30.9444 21.5563 31.0203 21.3418 30.8874C21.1274 30.755 20.9519 31.1292 20.9519 31.7189C20.9519 32.6224 21.1429 32.7912 22.1635 32.7912C22.8298 32.7912 23.4731 32.536 23.5924 32.2242C23.8562 31.5366 22.3503 30.1272 21.9847 30.7194ZM30.4794 30.6079C30.0761 30.69 29.7465 30.9168 29.7465 31.1116C29.7465 31.3061 29.6418 31.739 29.5133 32.0734C29.2088 32.8675 30.8195 33.308 31.4129 32.5926C32.0377 31.8391 31.3727 30.4256 30.4794 30.6079ZM42.5866 30.8979C41.6782 31.8073 41.7088 32.2268 42.7018 32.4866C43.6361 32.7309 44.1684 31.7867 43.6344 30.8321C43.3253 30.2789 43.1972 30.2873 42.5866 30.8979ZM101.208 30.9867C100.737 31.4586 100.921 31.9531 101.569 31.9531C101.914 31.9531 102.197 31.7758 102.197 31.5588C102.197 31.0303 101.543 30.6519 101.208 30.9867ZM88.4164 32.1153C88.0738 32.5281 88.0562 32.8021 88.3599 32.9899C88.6028 33.1403 88.9181 32.9605 89.0601 32.5901C89.4135 31.6682 89.0249 31.3815 88.4164 32.1153ZM125.686 33.3708C124.911 34.4055 123.738 35.4754 123.079 35.7486C121.559 36.3789 121.313 38.1251 122.822 37.5732C123.341 37.3834 125.131 37.2233 126.801 37.2174C128.471 37.2115 129.837 37.1441 129.837 37.067C129.837 36.1861 128.769 35.3056 127.7 35.3056H126.43L127.281 34.1088C127.983 33.1231 128.041 32.7866 127.614 32.2012C127.148 31.5642 126.948 31.6857 125.686 33.3708ZM81.4444 32.4086C81.0851 32.9907 81.8816 33.8108 82.4591 33.4538C82.9403 33.1562 82.6321 31.9531 82.0751 31.9531C81.8829 31.9531 81.5993 32.158 81.4444 32.4086ZM34.1308 32.8122C33.733 33.4567 34.2778 33.8724 34.8155 33.3344C35.1162 33.0335 35.1234 32.7992 34.8373 32.6224C34.6028 32.4774 34.2849 32.5629 34.1308 32.8122ZM61.1993 32.7552C60.8781 32.9589 60.7306 33.4278 60.8722 33.7966C61.2696 34.8329 61.9933 34.5899 61.9933 33.4198C61.9933 32.2414 62.0008 32.2477 61.1993 32.7552ZM97.4606 32.6865C97.2742 32.9748 96.6494 33.2103 96.0719 33.2103C95.2037 33.2103 95.0684 33.3595 95.2933 34.0686C95.4433 34.5404 95.3386 35.2005 95.0609 35.5353C94.6517 36.0289 94.6982 36.1438 95.3076 36.1438C95.7205 36.1438 96.4031 36.456 96.8244 36.8373C97.2533 37.2258 97.5904 37.3251 97.5904 37.0632C97.5904 36.8059 97.9832 36.2293 98.4632 35.7817C99.204 35.0911 99.2421 34.9142 98.7132 34.6129C98.3702 34.4176 98.0243 33.7865 97.9443 33.2103C97.8454 32.4979 97.6905 32.3303 97.4606 32.6865ZM39.1148 33.4102C38.9804 33.7614 38.6257 34.0484 38.3263 34.0484C37.9012 34.0484 37.8849 34.2659 38.2517 35.0437C38.8577 36.329 40.4922 36.3986 40.7184 35.1485C40.8072 34.6582 40.5379 33.924 40.1195 33.515C39.4595 32.87 39.3276 32.8562 39.1148 33.4102ZM48.3898 33.4726C47.7683 34.0945 47.7582 34.2265 48.3094 34.5354C48.9794 34.9105 50.2672 34.5945 50.2672 34.0547C50.2672 33.8775 50.0046 33.5137 49.6834 33.2472C49.2315 32.8717 48.9392 32.9228 48.3898 33.4726ZM71.9844 33.5271C71.5429 33.621 71.3704 33.9554 71.5023 34.4604C71.7712 35.4888 72.7449 35.8479 73.0573 35.0337C73.3932 34.1582 72.8177 33.3499 71.9844 33.5271ZM89.8993 34.3577C89.3566 35.4083 88.9152 35.7 87.7095 35.8039L86.1993 35.9342L87.1223 37.1034C87.8439 38.0174 87.9859 38.5886 87.7735 39.7226C87.4783 41.2962 87.7287 41.45 89.3666 40.7032C90.1883 40.3286 90.5907 40.3709 91.3643 40.9127C92.781 41.9059 93.1206 41.7534 92.8216 40.2577C92.6051 39.1744 92.763 38.7068 93.6605 37.7693L94.7661 36.6144L93.3514 36.2506C92.3333 35.9887 91.7466 35.4879 91.2583 34.4642L90.5799 33.0414L89.8993 34.3577ZM107.459 33.5854C107.331 33.792 107.491 34.0618 107.812 34.1851C108.426 34.421 108.898 34.1494 108.898 33.5594C108.898 33.0917 107.751 33.1123 107.459 33.5854ZM50.5696 34.7236C50.4033 34.8899 50.2672 35.4619 50.2672 35.9942C50.2672 36.6852 49.8296 37.1864 48.7361 37.748L47.2054 38.5337L48.5267 39.3148C49.657 39.9828 49.8484 40.3374 49.8484 41.7605V43.4246L51.0001 42.3434C51.921 41.4793 52.4382 41.3071 53.5798 41.4843C54.8592 41.6834 54.971 41.6243 54.6565 40.9157C54.2289 39.9522 54.2348 38.369 54.6712 37.0401C54.9752 36.1132 54.9153 36.0679 53.7298 36.3286C52.6748 36.5603 52.3302 36.4245 51.6676 35.5139C51.23 34.913 50.7358 34.5572 50.5696 34.7236ZM65.3436 35.1208C65.3436 35.48 65.5321 35.6576 65.7624 35.5152C65.9927 35.3727 66.1812 35.0789 66.1812 34.8618C66.1812 34.6448 65.9927 34.4675 65.7624 34.4675C65.5321 34.4675 65.3436 34.7617 65.3436 35.1208ZM24.4367 35.516C24.0962 35.8806 24.0807 36.1735 24.3852 36.4782C24.9279 37.0213 25.9774 36.6626 25.9774 35.9342C25.9774 35.1611 25.0125 34.8991 24.4367 35.516ZM101.073 35.7599C100.322 36.5113 100.907 37.7153 102.023 37.7153C102.796 37.7153 103.035 37.4906 103.035 36.7648C103.035 36.2422 102.736 35.7 102.372 35.56C101.532 35.2377 101.606 35.2264 101.073 35.7599ZM79.8098 36.1149C79.4999 36.6165 80.2877 37.1131 80.8455 36.7682C81.3141 36.4786 81.0063 35.7247 80.42 35.7247C80.2169 35.7247 79.9422 35.9003 79.8098 36.1149ZM14.9088 36.5155C14.7828 36.7196 14.9432 37.1059 15.2656 37.3737C15.9185 37.916 16.5869 37.2928 16.1359 36.5628C15.8155 36.044 15.2145 36.0206 14.9088 36.5155ZM68.271 37.6713C67.9543 38.1783 67.4279 38.4675 67.0171 38.3602C66.4237 38.2047 66.3152 38.4876 66.3495 40.101C66.3805 41.5614 66.5426 42.0048 67.0188 41.9332C67.3643 41.8816 68.0708 42.0727 68.5892 42.3585C69.4369 42.8262 69.5315 42.7868 69.5315 41.9667C69.5315 41.4655 69.8611 40.8105 70.2644 40.5113C70.9554 39.9983 70.9562 39.9355 70.2803 39.4175C69.8858 39.1149 69.3954 38.4017 69.1898 37.8322C68.8183 36.8021 68.8137 36.8013 68.271 37.6713ZM28.4902 37.82C28.4902 38.0505 28.6786 38.2391 28.9089 38.2391C29.1393 38.2391 29.3277 38.0505 29.3277 37.82C29.3277 37.5895 29.1393 37.401 28.9089 37.401C28.6786 37.401 28.4902 37.5895 28.4902 37.82ZM31.2303 37.7911C31.0975 38.0057 31.2278 38.3305 31.5197 38.5127C32.5005 39.1258 33.0968 39.0085 33.0968 38.2022C33.0968 37.3641 31.6859 37.0536 31.2303 37.7911ZM40.9094 37.7148C40.5165 38.351 41.3851 39.3324 41.8918 38.8254C42.2176 38.4993 42.1741 38.229 41.7369 37.8657C41.4023 37.5879 41.03 37.52 40.9094 37.7148ZM59.3017 38.5614C59.1388 39.0755 58.7464 39.4963 58.4302 39.4963C57.5416 39.4963 57.2539 40.298 57.8741 41.0456C58.1819 41.4169 58.3699 42.0949 58.2924 42.553C58.1798 43.2184 58.3059 43.3203 58.9206 43.0613C59.344 42.8828 60.1908 42.7637 60.8035 42.7969C61.7052 42.845 61.8773 42.7042 61.7081 42.0572C61.5934 41.6176 61.711 40.8616 61.9703 40.3772C62.3727 39.6245 62.325 39.4963 61.6403 39.4963C61.1997 39.4963 60.5598 39.0755 60.2189 38.5614L59.5982 37.6264L59.3017 38.5614ZM75.3946 38.8882C75.3946 39.3014 75.0826 39.9845 74.7015 40.4061C74.3132 40.8352 74.214 41.1725 74.4757 41.1725C74.7329 41.1725 75.2995 41.5556 75.7355 42.0232C76.4382 42.7784 76.5873 42.8019 77.0592 42.2328C77.3516 41.8803 77.8575 41.5916 78.1829 41.5916C78.6519 41.5916 78.6779 41.4114 78.3085 40.7208C78.0522 40.2418 77.9542 39.5591 78.0907 39.2034C78.2821 38.7042 78.1276 38.6125 77.4119 38.7998C76.9022 38.9331 76.2397 38.8384 75.9398 38.5894C75.5265 38.2462 75.3946 38.3183 75.3946 38.8882ZM83.2121 39.3567C82.7422 39.8265 82.9005 40.3344 83.5161 40.3344C83.8369 40.3344 84.208 40.0516 84.3407 39.7058C84.5824 39.0755 83.7498 38.8182 83.2121 39.3567ZM-5.17799 41.4181C-5.32834 41.8099 -5.38948 42.1926 -5.31368 42.2684C-5.23788 42.3443 -3.71391 42.9221 -1.92693 43.5524C0.844615 44.5301 1.37857 44.6089 1.70774 44.088C2.32378 43.1132 2.25929 43.063 -0.929794 42.0375C-2.59951 41.5007 -4.17709 40.981 -4.43548 40.8834C-4.69345 40.7853 -5.02807 41.0259 -5.17799 41.4181ZM33.2057 41.3745C32.8715 41.7555 32.8364 42.0593 33.1077 42.2269C33.3397 42.3702 33.4009 42.6954 33.2442 42.949C33.0583 43.2503 33.2133 43.3127 33.6907 43.1296C34.0927 42.9749 34.6484 42.8488 34.9261 42.8488C35.2033 42.8488 35.4299 42.4716 35.4299 42.0107C35.4299 41.5497 35.2976 41.1725 35.1355 41.1725C34.973 41.1725 34.5894 41.085 34.2828 40.9773C33.9759 40.87 33.4913 41.0489 33.2057 41.3745ZM42.9882 43.223C42.4987 43.7729 42.4878 43.9874 42.9308 44.3931C43.6562 45.0577 45.1157 44.634 45.3628 43.6878C45.6329 42.6552 43.8111 42.299 42.9882 43.223ZM70.3691 44.5251C70.3691 45.478 71.4194 45.667 71.7611 44.7757C72.0241 44.0901 71.7151 43.6869 70.9273 43.6869C70.6204 43.6869 70.3691 44.0641 70.3691 44.5251ZM36.9572 44.5896C37.1746 45.2425 38.1114 45.3565 38.1445 44.7346C38.1566 44.5041 37.8522 44.2506 37.4682 44.1705C37.0314 44.0804 36.84 44.2372 36.9572 44.5896ZM55.9728 45.1696C55.8283 45.5463 56.0013 45.9197 56.3891 46.0689C57.2061 46.3824 57.9754 45.3121 57.2597 44.857C56.5201 44.3864 56.2479 44.4521 55.9728 45.1696ZM93.0884 45.6641C92.8007 45.7676 92.5649 46.1192 92.5649 46.4456C92.5649 47.1027 93.3166 47.2142 94.1551 46.6816C94.6002 46.3991 94.6002 46.2592 94.1551 45.9063C93.8565 45.6695 93.3765 45.5606 93.0884 45.6641ZM30.456 46.0501C30.0652 46.4415 30.5372 47.0395 31.237 47.0395C31.5691 47.0395 31.8405 46.7566 31.8405 46.4109C31.8405 45.7798 30.9564 45.5493 30.456 46.0501ZM74.3187 46.2483C74.0029 46.7595 74.9435 47.5281 75.4791 47.1966C75.663 47.083 75.8133 46.7185 75.8133 46.3861C75.8133 45.675 74.7341 45.5752 74.3187 46.2483ZM64.0872 47.0114C64.0872 47.2264 63.6752 47.5331 63.1714 47.6928C62.3334 47.9589 62.3158 48.0276 62.962 48.5007C63.3506 48.7849 63.6685 49.1997 63.6685 49.4227C63.6685 49.6456 64.1869 49.7517 64.8201 49.6586C65.6908 49.5304 65.9865 49.2412 66.0321 48.4739C66.069 47.8562 65.8642 47.4585 65.5086 47.4585C65.1874 47.4585 64.9248 47.27 64.9248 47.0395C64.9248 46.809 64.7364 46.6204 64.506 46.6204C64.2757 46.6204 64.0872 46.7964 64.0872 47.0114ZM48.1732 47.4585C48.1732 47.689 48.3617 47.8776 48.592 47.8776C48.8224 47.8776 49.0108 47.689 49.0108 47.4585C49.0108 47.228 48.8224 47.0395 48.592 47.0395C48.3617 47.0395 48.1732 47.228 48.1732 47.4585ZM83.6409 47.9086C83.3662 48.9588 84.2189 49.6268 85.028 48.9952C86.0586 48.1911 85.9652 47.2557 84.8479 47.1907C84.1912 47.153 83.7733 47.4015 83.6409 47.9086ZM-7.3469 49.3167C-7.77449 51.0218 -7.22629 52.4412 -6.02353 52.7434C-5.17548 52.9562 -4.65702 52.7253 -3.53048 51.6328C-2.31976 50.4586 -2.06806 50.358 -1.83857 50.9569C-1.69032 51.3433 -1.80841 51.9484 -2.10073 52.3008C-2.48434 52.7635 -2.50528 53.069 -2.17569 53.3988C-0.796201 54.7792 0.601298 51.5633 -0.588482 49.7462C-1.45998 48.4153 -2.91611 48.4224 -4.17541 49.7634C-5.44476 51.1157 -5.91171 51.0893 -5.76178 49.6737C-5.59553 48.1056 -6.9658 47.7967 -7.3469 49.3167ZM42.7524 48.8972C42.5012 49.1997 42.4053 49.7336 42.5393 50.0831C42.8697 50.9443 44.4042 50.5056 44.4042 49.5497C44.4042 48.5967 43.3475 48.1793 42.7524 48.8972ZM37.0753 49.1348C36.6934 49.7529 37.2215 50.3899 37.8999 50.1296C38.2237 50.0052 38.3857 49.6364 38.2605 49.3095C37.995 48.6172 37.4451 48.5364 37.0753 49.1348ZM128.267 49.9683C127.061 50.7042 126.906 51.0101 126.906 52.6566C126.906 55.2837 127.213 55.9291 128.209 55.3956C128.84 55.0579 128.92 54.7976 128.586 54.1736C128.007 53.0903 128.051 52.6583 128.82 51.8885C130.375 50.3325 132.769 51.4409 132.769 53.7169C132.769 54.2072 133.041 54.5826 133.397 54.5826C133.848 54.5826 134.025 54.1212 134.025 52.9437C134.025 51.6278 133.771 51.0906 132.736 50.2197C131.193 48.9198 130.087 48.8578 128.267 49.9683ZM53.2946 50.8898C53.5534 51.6668 54.4551 51.7954 54.4551 51.0554C54.4551 50.6908 54.1565 50.392 53.7922 50.392C53.4274 50.392 53.2033 50.6158 53.2946 50.8898ZM81.0754 52.0242C80.9477 52.2308 81.119 52.5053 81.4561 52.6348C82.1103 52.8858 82.6693 52.3633 82.2233 51.917C81.8447 51.5381 81.3468 51.5846 81.0754 52.0242ZM68.9381 53.2693C68.7576 53.5614 68.7232 53.9134 68.8614 54.0517C69.2363 54.4267 69.645 53.8753 69.4423 53.2676C69.3008 52.8418 69.2019 52.8418 68.9381 53.2693ZM34.3532 53.6934C34.3532 53.9519 34.0638 54.1636 33.7104 54.1636C33.1973 54.1636 33.158 54.3329 33.5156 55.0017C34.0575 56.0146 35.4186 56.1043 35.7842 55.1513C35.9291 54.7725 35.9965 54.4364 35.9337 54.4041C35.8705 54.3719 35.4894 54.0927 35.0861 53.7843C34.5982 53.4105 34.3532 53.3799 34.3532 53.6934ZM-8.3633 58.1208C-8.3633 58.7314 -8.00608 59.4086 -7.52573 59.7086C-6.4352 60.39 -6.46912 60.6344 -7.73512 61.2114C-8.34948 61.4913 -8.78209 62.0391 -8.78209 62.5361C-8.78209 63.5804 -8.71718 63.5804 -6.68815 62.5449C-5.74922 62.0655 -4.2198 61.7068 -3.11588 61.7068C-1.35361 61.7068 -1.1974 61.6246 -1.31927 60.7639C-1.42857 59.9961 -1.74601 59.8046 -3.02751 59.7338C-3.99198 59.6802 -5.33085 59.1446 -6.48252 58.3517L-8.3633 57.0568V58.1208ZM23.8939 59.7162C26.3568 61.3862 26.0235 61.7068 21.8243 61.7068C19.7324 61.7068 18.0234 61.5651 18.0267 61.3925C18.0401 60.7504 18.7026 60.0615 19.9146 59.4291C21.5881 58.5558 22.2531 58.6036 23.8939 59.7162ZM45.1169 60.1101C45.6463 60.6075 46.0793 61.1703 46.0793 61.3606C46.0793 61.5509 44.3832 61.7068 42.3102 61.7068C40.2372 61.7068 38.5411 61.5509 38.5411 61.3606C38.5411 60.9227 40.2234 59.378 41.0538 59.0537C42.1134 58.64 44.1035 59.1576 45.1169 60.1101ZM64.9332 59.4061C65.6058 59.7543 66.3571 60.4144 66.6025 60.8728C67.0322 61.6766 66.912 61.7068 63.2643 61.7068C61.1834 61.7068 59.4806 61.5509 59.4806 61.3606C59.4806 60.9151 61.1771 59.3679 61.9933 59.0691C63.0583 58.6798 63.6634 58.749 64.9332 59.4061ZM86.5771 60.1101C87.1064 60.6075 87.5395 61.1703 87.5395 61.3606C87.5395 61.5509 85.8434 61.7068 83.7703 61.7068C81.6973 61.7068 80.0012 61.5509 80.0012 61.3606C80.0012 60.9227 81.6835 59.378 82.514 59.0537C83.5735 58.64 85.5636 59.1576 86.5771 60.1101ZM106.814 59.7162C109.277 61.3862 108.944 61.7068 104.745 61.7068C101.626 61.7068 100.941 61.5923 100.941 61.0719C100.941 60.2995 103.328 58.7771 104.543 58.775C105.027 58.7741 106.05 59.1974 106.814 59.7162ZM128.476 60.3192C127.508 60.5723 127.385 64.6402 128.345 64.6402C128.718 64.6402 128.997 64.1218 129.078 63.2782L129.209 61.9163L132.036 61.7922C134.519 61.6837 134.863 61.5689 134.863 60.8493C134.863 60.113 134.578 60.0355 132.036 60.0791C130.481 60.1059 128.879 60.214 128.476 60.3192ZM69.3221 64.1952C71.0324 65.8048 72.1736 66.3341 73.5795 66.169C75.2216 65.9762 77.375 64.7969 77.9098 63.7979C78.3194 63.0314 78.7935 62.9639 83.7703 62.9639C88.7535 62.9639 89.2209 63.0306 89.6326 63.8008C89.8788 64.261 90.8521 65.0316 91.796 65.5135C94.0236 66.6505 95.8625 66.3215 97.9803 64.4068L99.5763 62.9639H104.577H109.579L110.773 64.2115C112.975 66.5113 115.668 66.8001 118.186 65.0056L119.36 64.1692L119.132 66.8143C118.647 72.4482 117.133 79.2031 115.463 83.1838C114.852 84.6409 114.677 84.7553 113.067 84.7553C110.817 84.7553 109.018 85.8323 108.02 87.7768C106.976 89.8118 107.022 91.2949 108.193 93.3462L109.151 95.0225L107.963 96.6987C105.863 99.6615 99.1621 106.147 95.4964 108.765C91.9744 111.281 84.6787 115.019 80.6294 116.384C75.2698 118.191 70.7812 118.82 63.2497 118.819C55.3894 118.818 52.0617 118.35 45.8356 116.37L42.4509 115.293L39.4675 107.882C37.8266 103.806 36.4287 99.9046 36.3609 99.2131C36.2608 98.1902 36.0229 97.9312 35.0861 97.8235C33.6258 97.655 33.6132 96.7934 35.0555 95.742C36.0116 95.0451 36.2034 94.5472 36.3621 92.3547C36.4643 90.9408 36.4216 89.7841 36.2675 89.7841C36.113 89.7841 35.4132 90.0808 34.7121 90.4437C34.0115 90.8062 33.3636 91.0288 33.2727 90.9378C33.1819 90.8473 35.414 89.6886 38.2324 88.3631C41.8634 86.6558 43.5402 86.0653 43.9854 86.3369C44.436 86.6118 46.5806 85.7544 51.5646 83.3071C55.3877 81.4297 58.6857 79.9474 58.8934 80.0128C59.1011 80.0786 59.54 79.9617 59.8688 79.7538C60.3609 79.4424 60.1083 78.5917 58.4395 74.9412C57.3242 72.5027 56.2798 70.5071 56.1181 70.5071C55.9565 70.5071 55.3274 70.8985 54.7198 71.3767C54.1121 71.8548 50.6751 73.6568 47.0819 75.3804C41.7729 77.9275 40.5856 78.6546 40.7439 79.2606C40.8511 79.6704 40.7293 80.0145 40.473 80.0249C40.2167 80.0354 36.8031 81.596 32.8874 83.4927C28.9718 85.389 25.3312 87.1092 24.7977 87.315C24.1138 87.579 23.8985 87.9138 24.0686 88.4498C24.265 89.0696 23.7415 89.4602 21.2443 90.5586C19.5582 91.2999 17.5128 92.0144 16.6991 92.1468L15.2196 92.387L13.3116 88.6761C9.8155 81.8751 7.80699 75.0397 7.2768 68.1356L7.00208 64.5568L8.79659 65.4729C11.1075 66.6526 12.9166 66.3445 15.06 64.4068L16.656 62.9639H21.6769H26.6977L28.2343 64.4139C30.8345 66.868 33.9151 66.7083 36.4693 63.9881C37.3882 63.0096 37.66 62.9639 42.5891 62.9639C47.3683 62.9639 47.7863 63.0281 48.2746 63.8369C48.8948 64.8648 51.5349 66.3165 52.7841 66.3165C54.0585 66.3165 56.2056 65.1293 57.2291 63.8587C58.112 62.7624 58.1551 62.7553 63.0922 62.8835C67.8915 63.0084 68.1097 63.0545 69.3221 64.1952ZM97.5904 63.0591C97.5904 63.7044 95.3231 64.8078 93.9972 64.8078C92.7781 64.8078 90.8898 63.7116 90.8898 63.0038C90.8898 62.8667 92.3974 62.7544 94.2401 62.7544C96.0827 62.7544 97.5904 62.8915 97.5904 63.0591ZM14.2689 63.5712C13.9921 63.9052 13.1327 64.3875 12.3588 64.6427C11.2306 65.0153 10.7038 64.9788 9.69698 64.4575C7.40704 63.2728 7.74794 62.9639 11.3462 62.9639C14.2907 62.9639 14.7019 63.0494 14.2689 63.5712ZM34.772 63.7903C34.1962 64.2345 33.2937 64.7073 32.7668 64.8405C31.7659 65.0941 28.9089 63.9793 28.9089 63.3352C28.9089 63.1312 30.4639 62.9681 32.364 62.9732L35.819 62.9824L34.772 63.7903ZM55.729 63.5712C55.4522 63.9052 54.5929 64.3875 53.819 64.6427C52.6907 65.0153 52.1639 64.9788 51.1571 64.4575C48.8672 63.2728 49.2081 62.9639 52.8063 62.9639C55.7508 62.9639 56.1621 63.0494 55.729 63.5712ZM76.1961 63.6361C74.8778 65.2252 71.6937 65.19 70.3515 63.5712C69.9185 63.0494 70.3331 62.9639 73.3006 62.9639C76.4218 62.9639 76.6999 63.0285 76.1961 63.6361ZM118.111 63.3352C118.111 63.6843 115.606 65.0593 114.97 65.0593C114.334 65.0593 111.829 63.6843 111.829 63.3352C111.829 63.1312 113.243 62.9639 114.97 62.9639C116.698 62.9639 118.111 63.1312 118.111 63.3352ZM84.1891 67.9927C84.1891 68.6842 84.3776 69.2499 84.6079 69.2499C84.8383 69.2499 85.0267 69.0613 85.0267 68.8309C85.0267 68.1658 104.163 68.2689 104.434 68.9356C104.766 69.7557 105.489 68.4897 105.238 67.5272C105.023 66.7062 104.291 66.4179 104.291 67.1546C104.291 67.422 100.801 67.5737 94.6589 67.5737C88.5165 67.5737 85.0267 67.422 85.0267 67.1546C85.0267 66.9241 84.8383 66.7355 84.6079 66.7355C84.3776 66.7355 84.1891 67.3013 84.1891 67.9927ZM-5.43178 68.3795C-7.84903 68.5941 -8.16899 68.7269 -8.28792 69.5642C-8.40141 70.3663 -8.22971 70.5071 -7.13625 70.5071C-6.42892 70.5071 -5.85057 70.6802 -5.85057 70.8918C-5.85057 71.1035 -5.74126 71.5619 -5.60767 71.9106C-5.4255 72.385 -5.7153 72.5781 -6.75934 72.6783C-7.66016 72.7646 -8.15391 73.0345 -8.15391 73.4406C-8.15391 73.928 -7.63629 74.0604 -5.85057 74.0294C-0.804576 73.9422 -0.825098 73.9472 -0.825098 72.8225C-0.825098 71.8858 -0.951154 71.8104 -2.12376 72.0451C-3.01034 72.2228 -3.54011 72.1193 -3.79264 71.7203C-4.47819 70.637 -4.18295 70.1275 -2.70965 69.8509C-1.64886 69.6518 -1.24389 69.3568 -1.24389 68.7844C-1.24389 68.2823 -1.51191 68.0191 -1.97677 68.0652C-2.37964 68.105 -3.93461 68.2463 -5.43178 68.3795ZM127.743 70.0881C127.283 70.549 126.906 71.3976 126.906 71.9738C126.906 73.1321 128.229 74.6978 129.209 74.6978C129.554 74.6978 129.927 74.7271 130.037 74.7627C130.147 74.7983 131.075 74.9551 132.1 75.1106C133.711 75.3553 133.993 75.2861 134.172 74.601C134.407 73.7029 134.206 73.6086 131.32 73.2625C128.992 72.9834 128.347 72.5589 128.731 71.5573C128.954 70.9765 129.431 70.9178 131.928 71.1642C134.682 71.4358 134.863 71.4018 134.863 70.6136C134.863 69.669 133.495 69.2499 130.413 69.2499C129.139 69.2499 128.325 69.5056 127.743 70.0881ZM-5.38655 79.9935C-6.22915 80.584 -6.33636 80.9372 -6.15712 82.5284C-6.04237 83.5455 -5.83005 84.4964 -5.68515 84.6414C-5.54025 84.7864 -4.43464 84.6074 -3.22811 84.2437C-2.02158 83.8799 -0.51645 83.4655 0.117178 83.323C0.923766 83.1411 1.26885 82.8004 1.26885 82.1865C1.26885 81.4112 1.09882 81.3416 -0.196913 81.5847C-1.1128 81.7565 -1.66268 81.6953 -1.66268 81.4217C-1.66268 80.8061 -3.22937 79.3075 -3.87263 79.3075C-4.16704 79.3075 -4.8484 79.6163 -5.38655 79.9935ZM125.489 79.9579C125.053 81.0965 125.202 83.7207 125.733 84.2525C126.009 84.5291 126.82 84.7553 127.534 84.7553C128.248 84.7553 129.053 84.9766 129.323 85.2469C130.149 86.0729 131.782 85.0118 132.353 83.2781C132.633 82.4312 132.698 81.5952 132.5 81.4108C132.302 81.2268 131.01 80.7621 129.628 80.3778C128.246 79.9935 126.808 79.5899 126.432 79.481C126.049 79.3695 125.635 79.5795 125.489 79.9579ZM-3.55225 82.3528C-4.40365 82.8293 -4.78224 82.4983 -4.43171 81.5834C-4.21059 81.0072 -4.05522 80.9808 -3.51582 81.4288C-2.93035 81.9149 -2.93412 82.0067 -3.55225 82.3528ZM128.162 82.2611C128.162 82.4534 127.957 82.7371 127.707 82.8922C127.125 83.2517 126.306 82.4547 126.662 81.8768C126.96 81.3953 128.162 81.7037 128.162 82.2611ZM130.857 83.1231C130.492 83.7148 129.837 83.5606 129.837 82.8825C129.837 82.5087 130.083 82.3616 130.463 82.5075C130.807 82.6399 130.985 82.9165 130.857 83.1231ZM91.8111 89.8679C91.0954 90.5841 91.1892 91.1767 91.9706 90.8766C92.4858 90.6788 92.4275 90.9554 91.7085 92.1196C90.5828 93.9421 91.0204 94.6591 92.8107 93.9245C93.7543 93.5373 93.8644 93.3843 93.2978 93.2494C92.4225 93.0415 92.4104 92.8307 93.1931 91.4604C93.5223 90.8842 93.7982 90.1772 93.8066 89.8889C93.8255 89.2213 92.4715 89.2071 91.8111 89.8679ZM64.2175 90.6537C62.0812 91.7118 61.8739 91.9645 61.0058 94.5732C59.8097 98.1655 60.3651 100.285 62.6516 100.86C63.939 101.183 67.2181 99.7617 67.6231 98.7048C68.0972 97.4694 67.1653 97.194 65.8369 98.1763C64.9365 98.8427 64.2627 99.0333 63.4926 98.8401C61.9158 98.4437 62.17 97.4681 64.1078 96.4787C66.7361 95.1369 67.0133 93.4564 64.4595 94.3473C63.7195 94.6055 63.003 94.7056 62.8677 94.5694C62.5687 94.2694 64.3272 92.7704 66.1238 91.7944C67.5406 91.0246 67.8991 89.7841 66.7047 89.7846C66.3014 89.7846 65.1824 90.176 64.2175 90.6537ZM32.4686 91.4604C32.3263 91.6909 31.9854 91.8765 31.7111 91.8732C31.4112 91.869 31.4631 91.7043 31.8405 91.4604C32.645 90.9399 32.7899 90.9399 32.4686 91.4604ZM71.4161 91.7307C68.6847 92.3983 67.8693 92.902 68.5055 93.5285C68.7526 93.7715 69.7765 93.7024 71.2067 93.3462C74.9896 92.4033 75.7962 92.1099 75.8184 91.6699C75.8506 91.0292 74.1935 91.0518 71.4161 91.7307ZM29.8977 92.928C29.5007 93.9635 30.1092 95.5769 31.0037 95.861C31.464 96.0068 31.8405 96.4908 31.8405 96.9363C31.8405 97.5473 31.5473 97.7464 30.6478 97.7464C29.628 97.7464 29.4504 97.9169 29.4215 98.9235C29.383 100.284 27.3029 105.709 26.82 105.709C26.2664 105.709 18.858 97.748 18.858 97.1534C18.858 96.3534 19.6684 95.7759 23.0961 94.1319C25.3053 93.0725 26.2006 92.8198 26.4293 93.1903C26.7136 93.6504 27.5324 93.4581 30.0476 92.3392C30.0979 92.317 30.0305 92.5818 29.8977 92.928ZM76.6509 95.8007C76.6509 99.1947 77.0157 100.261 78.1774 100.261C78.5007 100.261 78.752 99.5048 78.8383 98.2702C78.9752 96.3056 79.2721 96.4397 79.765 98.6893C80.1834 100.601 81.4695 100.192 82.0981 97.945C82.39 96.902 82.7749 95.9582 82.9533 95.848C83.1317 95.7374 83.4357 96.8114 83.6288 98.2346C83.9848 100.86 84.8789 101.964 85.3111 100.311L85.5397 99.4361L86.5959 100.267C87.9126 101.304 88.6564 101.308 91.0183 100.296C94.3515 98.8657 94.2304 97.5511 90.8764 98.758C88.4264 99.6397 87.5395 99.4302 87.5395 97.9689C87.5395 97.1823 87.7593 96.9082 88.39 96.9082C89.5191 96.9082 89.9169 95.755 89.0781 94.9156C88.5282 94.3654 88.2149 94.3331 87.3334 94.7354C86.7421 95.0049 86.1009 95.651 85.9087 96.1715C85.5845 97.0469 85.5351 97.008 85.2441 95.651C84.6544 92.8986 83.2159 92.3212 81.7124 94.2334C80.9255 95.2345 80.8288 95.2622 80.6051 94.5477C80.0883 92.8999 79.6742 92.5395 78.1866 92.4444L76.6509 92.3463V95.8007ZM1.77977 93.2414C1.36433 93.7485 1.12143 94.9189 1.22069 95.9356C1.30905 96.8412 2.5717 97.7464 3.74641 97.7464C5.9262 97.7464 7.15744 94.8984 5.6364 93.3759C4.85033 92.5894 2.3845 92.5034 1.77977 93.2414ZM33.8762 93.2758C34.5178 94.0498 33.4742 95.4667 32.5294 95.1037C31.8434 94.8402 31.5884 93.5285 32.1198 92.9971C32.57 92.5462 33.3774 92.6744 33.8762 93.2758ZM121.126 93.2205C120.291 94.0565 120.498 96.8114 121.434 97.3126C123.519 98.429 125.649 97.3776 125.649 95.232C125.649 94.5736 125.353 93.7384 124.991 93.3759C124.214 92.5986 121.843 92.503 121.126 93.2205ZM70.4524 95.6452C68.7693 96.0441 68.5193 96.2679 68.8355 97.0922C69.0993 97.7799 70.4738 97.6592 73.2772 96.7033C76.5173 95.5987 74.2437 94.7467 70.4524 95.6452ZM31.8405 105.295V109.492L30.1653 108.383C29.244 107.773 28.4902 107.206 28.4902 107.123C28.4902 106.542 31.1892 101.099 31.4778 101.099C31.6771 101.099 31.8405 102.987 31.8405 105.295ZM35.8659 103.951C38.6688 110.049 40.2301 113.797 40.0454 113.982C39.934 114.093 38.4666 113.443 36.7839 112.538C34.3821 111.245 33.7313 110.695 33.7548 109.976C33.7715 109.473 33.8184 107.258 33.8594 105.055C33.9072 102.518 34.0873 101.144 34.3519 101.308C34.5814 101.45 35.2628 102.639 35.8659 103.951ZM10.6916 108.042C8.24253 110.763 8.09009 111.068 9.00221 111.418C9.80713 111.728 14.4167 107.253 14.1424 106.429C13.7718 105.315 12.6905 105.82 10.6916 108.042ZM110.145 108.023L108.716 109.499L111.318 112.103L113.92 114.707L115.478 113.148C116.693 111.933 116.925 111.478 116.532 111.085C116.139 110.692 115.81 110.786 115.038 111.511C114.213 112.288 113.969 112.346 113.569 111.863C113.197 111.414 113.27 111.119 113.896 110.552C114.704 109.821 114.648 108.642 113.807 108.642C113.561 108.642 113.015 108.955 112.593 109.338C111.441 110.381 111.122 109.631 112.22 108.462C113.163 107.457 113.104 106.547 112.096 106.547C111.81 106.547 110.931 107.211 110.145 108.023ZM61.2395 110.402C59.989 111.653 61.376 113.612 62.9247 112.782C64.1593 112.121 63.6027 109.899 62.2027 109.899C61.9493 109.899 61.5159 110.126 61.2395 110.402ZM16.811 113.776C15.297 115.693 14.859 116.535 15.1764 116.919C15.4151 117.207 15.7585 117.442 15.9395 117.442C16.5165 117.442 20.5775 111.987 20.3158 111.563C19.7601 110.663 18.7801 111.282 16.811 113.776ZM102.197 114.299C101.438 114.86 100.629 115.381 100.4 115.458C99.9306 115.614 103.792 121.633 104.361 121.633C105.258 121.633 107.991 119.425 107.778 118.872C107.487 118.111 107.011 118.126 105.781 118.932C104.374 119.855 103.936 118.922 105.163 117.616C105.879 116.853 106.002 116.472 105.647 116.117C105.292 115.762 104.906 115.816 104.125 116.328C102.807 117.192 102.122 116.401 103.408 115.499C104.313 114.865 104.569 113.893 103.935 113.5C103.739 113.379 102.957 113.738 102.197 114.299ZM24.8647 115.996C24.724 116.363 24.9309 116.875 25.3409 117.175C26.0134 117.667 25.969 117.862 24.724 119.888C23.4358 121.983 23.2833 123.577 24.4074 123.207C24.6951 123.112 25.3593 122.295 25.8836 121.391C26.4079 120.487 26.9926 119.49 27.1831 119.176C27.4528 118.731 27.7259 118.709 28.411 119.076C29.1363 119.465 29.3646 119.413 29.7005 118.786C30.0455 118.141 29.7637 117.817 27.8729 116.685C25.3023 115.147 25.1993 115.123 24.8647 115.996ZM93.9239 119.345C93.4067 119.708 92.9837 120.371 92.9837 120.819C92.9837 121.781 92.3392 121.903 91.9945 121.005C91.6934 120.219 90.9354 120.188 90.6439 120.948C90.3382 121.746 92.9728 127.5 93.6433 127.5C94.4943 127.5 94.7041 126.836 94.2397 125.613C94.006 124.998 93.9574 124.564 94.132 124.649C94.3067 124.734 94.9558 125.057 95.5743 125.369C96.6657 125.917 98.023 125.768 97.9958 125.103C97.9886 124.924 97.1519 124.272 96.1364 123.656C94.3138 122.549 94.2953 122.515 94.7104 121.011C95.2682 118.99 95.0601 118.549 93.9239 119.345ZM42.5393 123.823C41.8303 126.03 41.0538 129.246 41.0538 129.974C41.0538 131.418 42.5745 131.102 42.8756 129.595C43.2257 127.844 43.9087 128.025 44.0649 129.91C44.1717 131.202 44.3723 131.506 45.1957 131.623C46.1509 131.758 46.1865 131.677 45.9809 129.85C45.831 128.517 45.9403 127.789 46.341 127.456C47.2314 126.717 47.0341 125.078 45.9746 124.417C44.5172 123.506 42.7395 123.199 42.5393 123.823ZM80.4799 124.177C79.404 124.608 79.4053 124.639 80.6587 129.072C81.1458 130.793 81.4649 131.272 82.1258 131.272C82.8645 131.272 82.9361 131.087 82.6957 129.805C82.3687 128.06 83.1183 127.787 83.8466 129.386C84.1573 130.069 84.6645 130.433 85.3035 130.433C86.4967 130.433 86.5138 130.189 85.4438 128.433C84.984 127.678 84.6079 126.537 84.6079 125.898C84.6079 123.872 82.9571 123.184 80.4799 124.177ZM45.1458 126.164C45.2384 126.442 44.9264 126.662 44.4389 126.662C43.5691 126.662 43.3082 126.222 43.8547 125.675C44.2425 125.287 44.9419 125.552 45.1458 126.164ZM82.9328 126.033C82.9328 126.379 82.6501 126.662 82.3046 126.662C81.9591 126.662 81.6764 126.379 81.6764 126.033C81.6764 125.688 81.9591 125.405 82.3046 125.405C82.6501 125.405 82.9328 125.688 82.9328 126.033ZM55.0263 126.314C53.0911 127.252 52.5345 131.039 54.1155 132.512C55.4882 133.793 57.926 133.669 59.0312 132.263C59.8793 131.184 60.1603 129.087 59.6393 127.728C59.3579 126.994 57.3477 125.806 56.4653 125.852C56.1658 125.868 55.5184 126.076 55.0263 126.314ZM67.6842 127.113C66.4588 128.57 66.3177 129.929 67.2127 131.66C67.8899 132.971 68.6232 133.374 70.2987 133.354C72.6339 133.326 74.0921 130.947 73.2809 128.489C72.3399 125.635 69.5118 124.94 67.6842 127.113ZM57.7907 128.31C58.4076 129.464 58.3306 130.209 57.4875 131.251C56.5825 132.37 55.3961 132.039 55.0263 130.566C54.4475 128.258 56.7555 126.375 57.7907 128.31ZM71.1229 128.003C71.8914 128.772 71.7469 131.162 70.9035 131.635C69.668 132.326 68.6939 131.451 68.6939 129.65C68.6939 128.775 68.8196 127.933 68.9733 127.78C69.4176 127.334 70.5755 127.455 71.1229 128.003Z" fill="white"/>
</g>
</svg>
